<svg id="Layer_1" data-name="Layer 1" xmlns="http://www.w3.org/2000/svg" viewBox="0 0 513.31 638"><defs><style>.cls-1{fill:#005e2c;}.cls-2{fill:#cb0032;}.cls-3{fill:#faf400;}.cls-4,.cls-6{fill:#fff;}.cls-4,.cls-5{stroke:#005e2c;stroke-width:3px;}.cls-5{fill:none;}</style></defs><title>Masters Tournament Logo Vector</title><path class="cls-1" d="M330.69,374.27c-10.56,0-21.79-6.68-21.79-15.84,0-9.72,12.08-18.37,26.54-18.37,10.59,0,13.59,9.93,5.1,9.93-5.36,0-5.51-2.59-10.07-2.59-6.47,0-15.31,3.84-15.31,10.4s7.1,9.72,15.31,9.72c22.58,0,33-43,34.08-53.47.38-3.54.22-3.58-1.51-4.64-1.1-.69-2-1.67-3.19-2.5-2-1.42-1.69-1.72.26-1.72H376c1.53,0,1.93.4,2.35,1.61s8.67,30.47,9.07,32,1.27,1.5,2.58-.24,24.26-31.29,25.09-32.17a2.84,2.84,0,0,1,2.67-1.16h18c1.86,0,2.11.36.57,1.24-1.87,1.07-4.12,2.08-6,3-1.57.73-2.6,2.31-3.23,4.64-.75,2.84-14.51,49.65-14.91,51.32s-.22,2.32.73,3.17c1.2,1.11,2.91,2.53,3.71,3.33,1.5,1.46,1.33,2,.49,2h-23.7c-1.56,0-2.26-.34.23-2,2.67-1.76,5.91-3.89,7.14-4.67s1.53-1.72,2-3.25c.57-1.84,11-37.94,12.14-41.6s.17-3.79-1.62-1.5-25.09,31-25.89,32-.8,1.19-1.69,1.19h-3.4c-.9,0-1.05-.33-1.46-1.5-.56-1.58-7.12-23.46-7.6-25.12-.9-3-1.16-2.7-2.18,0-5.1,13.47-14.81,46.85-40.43,46.85" transform="translate(-243.35 -181)"/><path class="cls-1" d="M561.86,422.18c.78-2.07,1.21-2.2,1.71-.55.3,1,5.26,13,5.6,14,.24.71.33.9.86.9h5.37c.54,0,.54-.14,1-.7s11.63-14.24,12.7-15.62c1.49-1.92,1.74-1,1.29.55-.63,2.2-5.2,18.06-5.54,19.15a5,5,0,0,1-1.26,2.17A17.47,17.47,0,0,1,581,444c-1.5,1-1.44,1.5-.49,1.5h15.77c.73,0,.66-.55-.24-1.43a24.39,24.39,0,0,0-2-1.83c-.61-.46-.47-.84-.21-1.82s8.5-28.47,9-30.17a4,4,0,0,1,1.95-2.79c1.14-.53,2.46-1.17,3.61-1.79,1.39-.73.76-1.34-.35-1.34H595.44a1.7,1.7,0,0,0-1.6.71c-.48.52-16.55,20.72-17.32,21.76s-1.32,1.05-1.54.15-7-20.91-7.2-21.64-.49-1-1.41-1l-12.35,0c-1.17,0-1.52.37-.33,1.23.72.51,4.27,2.46,4.94,2.86,1,.63,1.14,1.27.56,2.93-.8,2.42-7.92,25.59-8.4,27.1s-.9,2.62-1.86,3.16-2.27,1.35-4.3,2.29-2,1.59-1.12,1.59h15.36c.8,0,.8-.48-.08-1.34s-1-1.11-1.86-1.91a2.38,2.38,0,0,1-.64-2.85c.48-1.26,5.07-15.84,5.57-17.18" transform="translate(-243.35 -181)"/><path class="cls-1" d="M688.05,444.21a2.1,2.1,0,0,1-1.69,1.26h-7.13a1.19,1.19,0,0,1-1.2-.94c-.34-.95-7.23-20.57-7.53-21.56-.5-1.65-1.45-1.34-2,.63-.38,1.38-4.3,14.5-4.76,15.77a2.39,2.39,0,0,0,.63,2.86c.82.79,1.1,1.15,1.87,1.9s.89,1.34.08,1.34H650.93c-.9,0-.84-.66,1.12-1.58s3.34-1.75,4.29-2.3a5.22,5.22,0,0,0,2.19-3.17c.49-1.51,7.59-24.67,8.42-27.09.57-1.67.16-2.3-.9-2.93-.66-.42-4.22-2.35-4.94-2.85-1.2-.87-.84-1.24.34-1.24h11.6c.92,0,1.17.24,1.41,1s9.07,28.26,9.3,29.16,1.16,1.08,1.55-.14c.32-1,7.3-22.68,7.67-23.86.49-1.42.21-2.05-.48-2.53-.87-.65-2.06-1.65-3-2.3-1.23-.78-1-1.34-.18-1.34h15.12c1.46,0,1.51.84-.14,1.66s-2.44,1-3.9,1.75c-1,.49-1.46,1.42-2.09,3.23-.48,1.34-10,32.57-10.21,33.29" transform="translate(-243.35 -181)"/><path class="cls-1" d="M475.79,444.21a2.13,2.13,0,0,1-1.71,1.26H467a1.22,1.22,0,0,1-1.21-.94c-.34-.95-7.23-20.57-7.51-21.56-.5-1.65-1.45-1.34-2,.63-.38,1.38-4.29,14.5-4.77,15.77a2.37,2.37,0,0,0,.66,2.86c.79.79,1.07,1.15,1.85,1.9s.89,1.34.09,1.34H438.67c-.89,0-.84-.66,1.14-1.58s3.3-1.75,4.28-2.3a5.38,5.38,0,0,0,2.18-3.17c.48-1.51,7.57-24.67,8.4-27.09.57-1.67.15-2.3-.89-2.93-.66-.42-4.21-2.35-4.93-2.85-1.21-.87-.82-1.24.34-1.24H460.8c.9,0,1.15.24,1.38,1s9.09,28.26,9.32,29.16,1.16,1.08,1.55-.14c.33-1,7.29-22.68,7.69-23.86.48-1.42.19-2.05-.48-2.53-.9-.65-2.09-1.65-3.1-2.3-1.2-.78-1-1.34-.14-1.34h15.1c1.46,0,1.51.84-.15,1.66s-2.42,1-3.88,1.75c-1,.49-1.46,1.42-2.11,3.23-.47,1.34-10,32.57-10.19,33.29" transform="translate(-243.35 -181)"/><path class="cls-1" d="M431.22,370.59c5.42,0,6.63-13.61,12.38-26.52,6.49-14.6,14.6-15.86,33.46-15.86,4.07,0,5.13,1.43.86,3.07-1.69.64-2.49,1.47-3.24,4.13s-8,28.56-8.35,29.88-.38,2.23.25,3,1.79,1.74,2.58,2.61c2.1,2.33,2.6,2.93,1,2.93H450.8c-1.67,0-1.78-.71.81-2.78,1.31-1,3-2.28,4.05-3.23a3.84,3.84,0,0,0,1.45-2.49c.2-1.2,2-7,2.16-8.08s.27-1.32-1.09-1.32h-8.27c-1.38,0-1.78.32-2.44,2.07-2.91,7.88-9.69,18.25-20.55,18.25-4.75,0-6-2.3-6-4.31s1.91-3.34,4.59-3.34c2.2,0,3.08,2,5.75,2m28.71-18.25c.66,0,.87-.2,1.51-2.11s3.34-11.36,4-13.54c1-3.3,1.08-3.5-.42-3.57-2.09-.06-7.27-.51-10.19,4.69a58.08,58.08,0,0,0-4.77,12.64c-.43,1.35-.55,1.88.3,1.88h9.57Z" transform="translate(-243.35 -181)"/><path class="cls-1" d="M494.41,443.38c5.42,0,6.66-13.54,12.38-25.48,6.51-13.49,14.62-14.66,33.47-14.66,4.08,0,5.14,1.31.85,2.82-1.67.62-2.47,1.38-3.23,3.82s-8,26.45-8.35,27.66-.71,2.38.07,3,1.76,1.77,2.58,2.53c2,1.82,1.7,2.38.72,2.38H514.79c-1.66,0-1.53-.56.89-2.43,1.28-1,2.05-1.79,2.92-2.54a4.91,4.91,0,0,0,1.71-2.9c.22-1.11,2-6.45,2.17-7.49s.26-1.21-1.08-1.21h-8.26c-1.4,0-1.81.3-2.45,1.91-2.92,7.29-9.71,17.83-20.58,17.83-4.75,0-6-2.16-6-4s1.91-3.08,4.61-3.08c2.2,0,3.07,1.83,5.73,1.83m28.73-17.82c.64,0,.85-.18,1.51-1.94s3.33-10.53,4-12.54c1-3.05,1.1-3.25-.4-3.3-2.11-.08-7.28-.48-10.18,4.33a51,51,0,0,0-4.8,11.7c-.43,1.24-.56,1.75.29,1.75Z" transform="translate(-243.35 -181)"/><path class="cls-1" d="M516.33,343.32c.55-1.72,2.26-7.39,3.21-10.55.92-3,.13-3.4-2.58-1.17-1.58,1.31-3.12,1.58-6.3.41s-4.7-1.89-8.39-1.89a16.28,16.28,0,0,0-12.16,6.54c-3.13,4.34-3.65,8.55,1,13.33,6.48,6.64,12.08,8.22,14.13,11.18s1.08,8.87-6.58,8.87-10.35-5.06-11-9-1.84-3.49-2.82-.53-3,9.49-3.66,11.4.07,3.38,2.35,1.9a7.75,7.75,0,0,1,8-.74,16.18,16.18,0,0,0,7.11,1.91c2.16,0,9.92-1.07,14.56-7.29s.87-12.57-2.57-15.11-11-6.76-12.52-10,1.29-8.45,6.67-8.45c7.89,0,9.16,6.22,9.29,7.82.21,2.85,1.51,3.69,2.27,1.37" transform="translate(-243.35 -181)"/><path class="cls-1" d="M703.75,343.32c.56-1.72,2.28-7.39,3.24-10.55.9-3,.1-3.4-2.6-1.17-1.59,1.31-3.11,1.58-6.29.41s-4.71-1.89-8.39-1.89a16.23,16.23,0,0,0-12.16,6.54c-3.14,4.34-3.67,8.55,1,13.33,6.46,6.64,12.08,8.22,14.12,11.18s1.09,8.87-6.58,8.87-10.36-5.06-11-9-1.84-3.49-2.8-.53-3,9.49-3.66,11.4.06,3.38,2.33,1.9a7.75,7.75,0,0,1,8-.74,16.19,16.19,0,0,0,7.12,1.91c2.16,0,9.93-1.07,14.56-7.29s.88-12.57-2.58-15.11-11-6.76-12.52-10,1.31-8.45,6.7-8.45c7.85,0,9.15,6.22,9.28,7.82.2,2.85,1.51,3.69,2.25,1.37" transform="translate(-243.35 -181)"/><path class="cls-1" d="M541.55,328.78c-4,0-13.91,3.54-13.91,12.74,0,5.11,8.21,4.87,8.21-1.26,0-2.21-1.73-6.3,3.24-6.3,2.55,0,3.34.84,5.38,1.69,1.7.73,1.87,1.13,1.29,2.94s-7.85,26.3-8.17,27.41a3.07,3.07,0,0,1-1.23,2.14c-.8.63-2.71,2.26-4.28,3.49-2,1.51-2,2.22-.88,2.22h19.73c1.06,0,1.57-.34-.4-2.38a31.37,31.37,0,0,1-2.33-2.6,2.31,2.31,0,0,1-.57-2.55c.31-1.34,6.79-24.64,7.18-26.06s.49-1.9,2-1.9c2.18,0,7.36.39,10.67-1.28s7.53-4.9,7.53-8c0-3.82-6-3.88-6.87.4-.43,2-2.59,3.25-6,3.25-6,0-15.42-4-20.56-4" transform="translate(-243.35 -181)"/><path class="cls-1" d="M723.25,403.24c-3.86,0-13.46,3.34-13.46,12,0,4.78,7.92,4.56,7.92-1.19,0-2.09-1.31-5.31,3-5.31,2.46,0,3.4.57,5.45,1.42,1.7.72,1.86,1.11,1.29,2.94s-7,23.45-7.36,24.57a6.09,6.09,0,0,1-1.52,2.76c-.88.86-2.62,2.12-3.58,2.87-1.52,1.17-2,2.21-.89,2.21h18.78c1,0,1.45-.4-.26-2.06-.84-.83-1.6-1.66-2.32-2.31s-.49-1.81-.17-3.16,6-21.79,6.39-23.21.49-1.91,1.94-1.91c2.18,0,7.35.4,10.67-1.26s7.52-4.9,7.52-8c0-3.81-6-3.89-6.87.4-.42,2-2.58,3.25-6,3.25-6,0-15.58-4-20.54-4" transform="translate(-243.35 -181)"/><path class="cls-1" d="M268,387.64c1.44.09,2.34.18,1.59,2.62s-12.55,42.95-13,44.44a9.9,9.9,0,0,1-2.36,4.11c-1.16,1.14-4.63,2.88-6.36,3.91-2.25,1.35-3.16,2.75-1.65,2.75h25.24c.81,0,1-.54-.83-2.2-1.17-1.08-2.15-2.22-3.13-3.08s-1.13-2.8-.48-4.85c.55-1.78,12.8-43.42,13.33-45.33.48-1.7,1-2,2.49-2h15.56c1.55,0,1.38.36,1.62,1.22s1.13,5.47,1.45,6.75,1,2.62,2,.16,3.87-11.56,4.37-13.07.23-1.51-1.31-1.51H250.25c-1.29,0-1.78,0-2.25,1.11s-4,11.71-4.39,12.84c-.8,2.28.26,3,2.28.38s5-6.1,5.75-7a3.11,3.11,0,0,1,2.67-1.27c1.2,0,12.44-.08,13.67,0" transform="translate(-243.35 -181)"/><path class="cls-1" d="M614.36,330.12c1.39,0,1.54.32.81,2.54-.6,1.86-2,5.93-2.74,7.72s-2.59,4.28-2.59-.54c0-3.69-1.41-6-3.36-6h-8.3c-1.93,0-2.55.54-3,1.71s-2.92,9.34-3.32,10.62-.33,1.74.72,1.74c6.11,0,7.34-.46,8.74-2.7,1.55-2.46,2.44-1.66,1.95.16-.73,2.75-2.91,10.77-3.31,12s-1.39,2.05-1.71-1c-.34-3.24-.56-4.27-6.55-4.27-1.06,0-1.52.48-1.85,1.5s-3.8,12.28-4.23,13.38-.48,2.07.75,2.07h12c2.13,0,4.81-2.67,6.54-5.23,2.67-3.95,3.4-2.46,2.76.4s-2.18,7.45-2.59,8.55-.8,1.11-1.69,1.11H570.2c-1.71,0-1.68-1.05.38-2.78a39,39,0,0,0,4.39-3.79,6.44,6.44,0,0,0,1.77-3.09c.49-1.67,7.69-26.15,7.93-27.33s.17-1.67-.57-2.22-2.06-1.78-2.92-2.62c-1.4-1.4-1.6-1.9-.62-1.9h33.8" transform="translate(-243.35 -181)"/><path class="cls-1" d="M641.41,335.51c.57-1.64,1.06-1.7,3-1.7h5c6.36,0,4,9.51-.9,12.88a4.45,4.45,0,0,1-2.8,1.23h-5.9c-1.87,0-2-.59-1.55-2.12l3.15-10.29m-5.69,18.59c.4-1.26,2-3.26,5.6-1.43s1.76,7.86,2.73,12.7a13.76,13.76,0,0,0,4.85,7.77,1.79,1.79,0,0,0,1.63.71H662c1,0,1-.9-2.23-2.38-8.6-4-6.39-14.73-7.86-17-.85-1.37-.67-1.79,1.15-2.61,11.64-5.22,13.43-21.71-3.33-21.71H626.76c-1,0-.75.51.66,1.89.85.85,2.18,2.07,2.9,2.63s.81,1,.57,2.22-7.43,25.66-7.93,27.32a6.72,6.72,0,0,1-1.72,3.33c-.8.8-2.68,2.38-4.29,3.73-2.34,2-2.43,2.61-.81,2.61h18.61c.89,0,1.79-.57.4-2.21a25.07,25.07,0,0,1-2.26-3.65c-.71-1.16-.89-1.59-.58-2.7Z" transform="translate(-243.35 -181)"/><path class="cls-1" d="M413,409.42c.56-1.55,1-1.59,2.91-1.59h4.87c6.15,0,3.82,8.93-.9,12.12a4.4,4.4,0,0,1-2.71,1.14h-5.7c-1.83,0-2-.55-1.51-2l3-9.68m-5.5,17.48c.39-1.19,1.9-3,5.43-1.34s1.7,7.41,2.65,11.94a13.67,13.67,0,0,0,3.74,7.3,1.72,1.72,0,0,0,1.56.67h11.53c1,0,.92-.74-2.15-2.22-6.23-3.06-3.52-12.14-7.07-16-1-1.12-.65-1.68,1.11-2.44,17.84-7.77,8.53-20.42-3.22-20.42H398.76c-.94,0-.74.5.64,1.8a35,35,0,0,0,2.82,2.44c.71.53.78,1,.55,2.09s-7.22,24.14-7.7,25.71a7.55,7.55,0,0,1-1.7,3.37c-.81.75-2.6,2.24-4.18,3.5-2.13,1.73-2,2.21-.73,2.21h17.28c.85,0,1.21-.48.22-1.67s-1.12-1.35-1.7-2.14a2.22,2.22,0,0,1-.55-2.53Z" transform="translate(-243.35 -181)"/><path class="cls-1" d="M354.53,441c-5.12,0-5.41-4.13-5.09-5.17,0,0,9.13-29.63,9.35-30.37s.25-1.13-.82-1.13h-14.5c-.93,0-.74.54.64,1.85.81.77,2.12,1.92,2.81,2.44s.79,1,.57,2.09-5.61,19.2-6.06,20.76c-3.07,10.38,1.73,18.53,15.11,14,5.43-1.82,7-4,9.31-4s3.81,2.91,5.1,4c1.85,1.51,2.37,2.3,3.41,0,.79-1.82,11.87-39.31,12.12-40.32.13-.55.31-.84-.81-.84H370.24c-.94,0-.74.54.64,1.85.81.77,2.11,1.92,2.82,2.44s.78,1,.55,2.09-5.58,19.65-6,21.21c-1.19,4.23-8.57,9.08-13.7,9.08" transform="translate(-243.35 -181)"/><path class="cls-1" d="M650.88,404.44c1.34,0,1.5.3.8,2.39-.61,1.74-2,5.55-2.71,7.23s-2.52,4-2.52-.49c0-3.49-1.39-5.67-3.26-5.67h-8.14c-1.9,0-2.49.5-2.93,1.6s-2.85,8.77-3.24,10-.32,1.63.7,1.63c6,0,7.18-.41,8.55-2.52,1.5-2.31,2.38-1.56,1.9.14-.72,2.58-2.85,10.12-3.24,11.31s-1.35,1.93-1.65-1c-.34-3.06-.56-4-6.42-4a1.71,1.71,0,0,0-1.82,1.43c-.32,1-4,12.24-4.4,13.27s-.49,1.95.69,1.95H635c2.09,0,5-3.25,6.69-5.64,2.62-3.73,3.34-2.3,2.7.36s-2.14,7-2.53,8-.79,1-1.67,1H606.53c-1.65,0-1.22-.77.81-2.38,1.58-1.27,4.28-3.06,5-3.79a6.08,6.08,0,0,0,1.73-2.91c.47-1.56,7.51-24.52,7.77-25.63s.16-1.57-.56-2.1a33.41,33.41,0,0,1-2.84-2.44c-1.39-1.31-1.6-1.79-.63-1.79h33.08" transform="translate(-243.35 -181)"/><path class="cls-1" d="M332,419.64c1.11,12-13.82,27.34-26.92,27.34-9.88,0-16.19-8-16.19-16.65,0-13.62,11.86-26.86,23.7-27.25,5-.15,18.17,2.89,19.41,16.56m-17.79-11.08c-10.4,0-15.7,13.72-15.7,21.14,0,7.22,3.33,12,8.5,12,4.42,0,16.19-7.57,16.19-21.38,0-3.66-.79-11.8-9-11.8" transform="translate(-243.35 -181)"/><path class="cls-1" d="M655.94,791a12.4,12.4,0,1,1,12.42,12.43A12.41,12.41,0,0,1,655.94,791M679,791a10.68,10.68,0,1,0-10.67,10.72A10.67,10.67,0,0,0,679,791m-16.43-7.07H668a8,8,0,0,1,3.86.63,3.27,3.27,0,0,1,1.49,2.69c0,2.12-1.76,3.32-3.67,3.58,1.52.26,2.31,2.14,2.87,3.33a12.23,12.23,0,0,0,1.16,2.14c.3.36.61.42,1.23.42v.68H674a4,4,0,0,1-2.25-.37,7.17,7.17,0,0,1-1.45-2.58,10.58,10.58,0,0,0-1.41-2.76,2.46,2.46,0,0,0-1.94-.47h-.58v4.59c0,.66.29.89,1,.91l.64,0v.64h-5.42v-.64l.66,0c.84-.06,1-.15,1-.95V785.38c0-.8-.39-.8-1-.83h-.58v-.66Zm4.58,6.5c2.07,0,4-.45,4-2.94,0-2-1.25-2.87-3.12-2.87h-.86c-.34,0-.47,0-.6.32a1.82,1.82,0,0,0-.17.48v5Z" transform="translate(-243.35 -181)"/><path class="cls-1" d="M261.14,648.53a105,105,0,0,1-.51-12.58c.36-22.94,3.81-40.53,10.52-53.79,4.67-9.28,8.73-23.66,9.8-35,.33-3.42.28-10.54.27-14.81l0-2.55c0-6.34,6.14-8.58,8.46-9.41l11.83-3.79,2.57-7c1.17-3.12,4.92-6.28,10.43-5.88,4.75.34,202.57,6,209.56,6s10.84,6,14.27,11.2c3.56,5.44,6.65,10.14,12.29,10.14,3.62,0,5.25-2.79,8.07-9.16,1.67-3.7,3.4-7.54,6.3-10.56,9.56-9.95,24.61-10.47,35-1.22,5.74,5.11,14.62,2.92,22.59-5.58,6.21-6.65,14.07-6.85,19.8-7,1,0,2-.06,2.93-.12,3.92-.25,4.92-1.56,8.82-8.94,5.72-10.84,20.38-25.1,27.11-29.06,3.32-2,7.72-4.05,12.14-2.86a11,11,0,0,1,6.79,5.65,19.51,19.51,0,0,1,1.65,3.55c2.47,5.42,2.57,7.87,2.71,12.33l.05,1.21c.16,3.58,1,6.08,2.38,7.24,1.06.88,2.81,2.32,4.62,17.46.07.57,1.64,13.82.87,17.17-.62,2.84-2.84,5.7-6.86,10.89L702,536.79c-3.78,5-3.94,10.1-3.86,20.2.05,8.22-1.82,14.3-7.19,23.23-.88,1.45-1.77,2.68-2.62,3.85-3,4.11-5.5,7.63-6.09,20.45-.4,9.26,1.11,17,2.7,25.12a148.72,148.72,0,0,1,3.17,22.61l.35,6.72c.81,14.52,1.34,24.09-2.18,35.14-5.63,17.62-13.82,28.9-35.06,48.25-5.62,5.12-9.91,12.64-3.25,32.78,2.66,8-3.64,29.45-10.06,38.55-2.47,3.51-5,5.24-7.62,5.3a17,17,0,0,1-12.67-4.74c-8.51-8.25-8.73-25-8.81-33.13,0-.88,0-1.72-.05-2.36-.33-9.29-4-17.15-10.18-21.58-14.75-10.57-32.76-7.9-42.22,0-7.22,6-11.22,5.19-19.26,1.68l-.36-.15c-5.51-2.43-12.38-5.44-26.76-2.38-10.95,2.32-18.83,6.54-26.38,14.09-8.53,8.54-11.2,12.86-13.68,27.07-.55,3.21-3.29,10-9.58,12.63-5.65,2.37-12.46.88-20.25-4.46-2.32-1.61-4.12-2.75-6.22-4.09-3.07-2-6.86-4.38-13.82-9.19l-1.89-1.31c-6.26-4.38-10-7-20.52-7.34-11.39-.33-21-7.8-29.48-14.38-2.12-1.64-4.12-3.17-6.08-4.6-9.44-6.76-19.89-9.12-30-11.4a145.32,145.32,0,0,1-16.45-4.43C285,738,273.17,705.29,270.27,695.54A270.59,270.59,0,0,1,261.14,648.53Z" transform="translate(-243.35 -181)"/><path class="cls-2" d="M596.8,185.15c-4.94-1.56-8.45-4.93-20.42,3.14s-12.25,10.4-17.2,9.1c-4.56-1.2-8.06-.77-17.42,3.38-7,3.13-18,4.69-18.76,12.76s-1.29,18.22-2.32,26.29-12.52,26.81-13.29,36.44a71.75,71.75,0,0,1,17.44-4.94c6.78-1,6-5.2,18-4.17,10.5.92,14.83,5.21,23.18.26s17.82-14.57,30.84-12V185.15" transform="translate(-243.35 -181)"/><path class="cls-1" d="M606.82,309.77V184.9c0-2.34-2.33-3.9-4.16-3.9s-6.63,3.63-6.63,6.23V309.77h10.79" transform="translate(-243.35 -181)"/><path class="cls-3" d="M536,723.47c-5.88-1.25-10.67-3.44-26.88-3.94-13.49-.43-26.78,4.58-35.55,13.35-10.16,10.15-13.33,21.19-15.14,35.68-.36,2.93-1.81,5.32-3.63,6.13-1.31.55-2.87.2-4.61-1.06-2-1.44-4-3-6.27-4.88-4.18-3.36-9.36-7.51-17-12.79-6.58-4.51-15-4.37-22.38-4.24-3.57.06-7,.14-9.11-.39-5.17-1.28-9.06-4.4-14-8.33a102.25,102.25,0,0,0-13.21-9.4c-9.2-5.35-15.83-6.7-22.85-8.18A86.37,86.37,0,0,1,324,718.65c-12.27-5.76-27.73-23-45.93-51.34-6.36-9.89-8.43-15.77-8.17-31.2.34-21.51,3.45-37.78,9.52-49.77,5.15-10.2,9.58-25.94,10.74-38.28.39-3.91.3-15.76.3-15.76a4,4,0,0,1,2.37-3.2s0,0,13.54-4.94c0,0,.18.15,2.93-2.6,0,0,.1.37,2-4.83,0,0,1.6-3.82,2.5-3.76,4.76.35,203.2,6.07,210.23,6.07,1.92,0,4.25,3.56,6.5,7,4,6.07,9.38,14.35,20.05,14.35,10,0,13.78-8.45,16.56-14.63,1.32-3,2.71-6.08,4.49-7.94,6.15-6.39,15.48-6.68,22.2-.72,9.87,8.77,23.81,6.35,35.53-6.15,3.54-3.81,7.84-3.94,13.27-4.08,1.13,0,2.19-.05,3.28-.12,9.42-.59,12.53-6.46,16.44-13.88,5.08-9.62,18.53-22.4,23.61-25.39,3.61-2.13,4.85-2,5-1.91s.64.44,1.14,1.31c1.53,2.69,1.82,4.89,1.15,8.44a18,18,0,0,0,4.56,16.3c1.9,2.08,2.68,2.94-4.22,10.09-1.41,1.45-2.72,2.82-3.88,4.28-4.75,6.1-7.42,15-8.15,27.13-.68,11.74-1.22,14.16-6.83,21.47-4.9,6.32-8.44,10.9-9.32,30.14-.41,9.69.88,20.54,2.14,31,1.08,9,2.21,18.37,2.16,26.61-.11,16.24-1.9,29-5.81,41.25-3.78,11.84-9.84,20.06-24.92,33.81-9.28,8.44-13.53,18.2-6.07,40.71,3.57,10.76,4.56,21.91,2.29,26a2.53,2.53,0,0,1-3.86.81c-5-3.86-8.58-20.29-8.91-30.38-.49-14.84-8.85-22.52-15.08-27-17.46-12.54-48.59-14.2-61.8-3.21C544.75,725.06,540.28,724.35,536,723.47Z" transform="translate(-243.35 -181)"/><path class="cls-4" d="M599.68,700.15c16.13,0,29.23-10.06,29.23-22.46s-13.1-22.45-29.23-22.45-29.24,10-29.24,22.45S583.52,700.15,599.68,700.15Z" transform="translate(-243.35 -181)"/><path class="cls-5" d="M599.68,700.15c10.62,0,19.89-4.38,25-10.89-5.13-6.52-14.4-10.89-25-10.89s-19.91,4.37-25,10.89C579.77,695.77,589,700.15,599.68,700.15Z" transform="translate(-243.35 -181)"/><rect class="cls-1" x="352.68" y="282.7" width="10.79" height="234.33"/><path class="cls-6" d="M303.82,713.31q-14.67-14.25-32.36-41.76c-.79-1.2-1.51-2.39-2.19-3.55,1.83,9.87,4.09,19.25,6.1,26,2.23,7.5,10.09,29.44,28.45,42.65Z" transform="translate(-243.35 -181)"/><path class="cls-6" d="M362.26,739.27c-1.2-.65-2.38-1.23-3.5-1.73v18.89c1.17.63,2.32,1.31,3.5,2Z" transform="translate(-243.35 -181)"/><path class="cls-6" d="M400.14,759.61a28.45,28.45,0,0,1-6.58-.67c-6.84-1.67-11.56-5.45-17.05-9.83-2-1.63-4.11-3.29-6.43-5v19.89c.45.36.9.73,1.38,1.08,8.23,6.38,16.73,13,26.39,13.27.79,0,1.57.06,2.29.12Z" transform="translate(-243.35 -181)"/><path class="cls-6" d="M463.14,777.61a12.72,12.72,0,0,1-5.2,4.28c-3.93,1.71-8.32,1-12.37-1.92-2.09-1.53-4.17-3.17-6.55-5.11-4.08-3.26-9.14-7.31-16.56-12.42a14.16,14.16,0,0,0-4.75-2v23.87c1.16.76,2.33,1.58,3.52,2.41l1.89,1.31c6.89,4.75,10.64,7.15,13.65,9.07,2.13,1.38,4,2.55,6.37,4.2,6.19,4.25,11.31,5.58,15.2,3.94a10.5,10.5,0,0,0,4.8-4.57Z" transform="translate(-243.35 -181)"/><path class="cls-6" d="M639.11,791.38a10.46,10.46,0,0,1-3.73,1.68,10.05,10.05,0,0,1-8.74-1.92,12.93,12.93,0,0,1-1.85-1.72V812.7a12.9,12.9,0,0,0,5.43,1c.2,0,1.36-.19,3.38-3a49.46,49.46,0,0,0,5.51-11.31Z" transform="translate(-243.35 -181)"/><path class="cls-6" d="M541.88,732.81a34.71,34.71,0,0,1-7.49-1.62l-.77-.24a55.47,55.47,0,0,0-12.44-2.76v21.52a40.23,40.23,0,0,1,17.73,4.1l.36.15c1,.42,1.83.79,2.6,1.1V732.81Z" transform="translate(-243.35 -181)"/><path class="cls-6" d="M605.91,736.35a38.16,38.16,0,0,0-3.08-2.44c-9.34-6.7-22.8-9.49-34.14-8.92v20.83a41.79,41.79,0,0,1,33,7,26.77,26.77,0,0,1,4.19,3.78Z" transform="translate(-243.35 -181)"/><path class="cls-6" d="M343.39,733c-1.83-.37-3.7-.77-5.74-1.26v17.38c1.91.44,3.83.9,5.74,1.44Z" transform="translate(-243.35 -181)"/><path class="cls-6" d="M700.8,505.6c-.5.54-1,1-1.51,1.56s-.74.77-1.08,1.15v24.76l2.59-3.39Z" transform="translate(-243.35 -181)"/><path class="cls-6" d="M655.11,712.69c-1.21,1.31-2.5,2.64-3.91,4v18.48c1.38-1.28,2.67-2.52,3.91-3.72Z" transform="translate(-243.35 -181)"/><path class="cls-6" d="M663.06,703.06c-1.23,1.73-2.57,3.46-4,5.24v19.28c1.42-1.46,2.76-2.88,4-4.26Z" transform="translate(-243.35 -181)"/><path class="cls-6" d="M353.27,735.45c-1.17-.38-2.33-.7-3.49-1v18.1c1.16.4,2.33.84,3.49,1.33Z" transform="translate(-243.35 -181)"/><path class="cls-6" d="M408.2,779.82a31,31,0,0,1,4.83,1.79V759.69c-1.58-.13-3.19-.15-4.83-.15Z" transform="translate(-243.35 -181)"/><path class="cls-6" d="M687.52,575.61a45.24,45.24,0,0,0,3.65-7.76v-46.4a65.3,65.3,0,0,0-1.69,12.11c-.38,6.34-.81,10.59-2,14.32v27.73Z" transform="translate(-243.35 -181)"/><path class="cls-6" d="M680.76,559.69a1.46,1.46,0,0,1,.2-.25c.67-.89,1.31-1.74,1.88-2.55v25.8a26.06,26.06,0,0,0-2.08,3.45V559.69Z" transform="translate(-243.35 -181)"/></svg>